<svg width="48" height="48" viewBox="0 0 48 48" fill="none" xmlns="http://www.w3.org/2000/svg">
<path d="M21.2314 10.5664V25.4148C21.2314 35.2173 15.5818 38.7136 7.91716 40.674C6.74884 40.9725 5.5402 40.3524 5.11348 39.2248C4.60996 37.8967 5.39332 36.4576 6.7666 36.0952C12.3423 34.6245 14.124 31.0029 13.2548 25.4148H4.78372C3.77089 25.4148 2.79955 25.0124 2.08337 24.2962C1.36719 23.5801 0.964844 22.6087 0.964844 21.5959V10.5664C0.964971 9.5537 1.36737 8.58248 2.08354 7.8664C2.7997 7.15033 3.77098 6.74805 4.78372 6.74805H17.4125C18.4253 6.74805 19.3965 7.15033 20.1127 7.8664C20.8289 8.58248 21.2313 9.5537 21.2314 10.5664ZM46.5648 10.5664V25.4148C46.5648 35.2173 40.9148 38.7136 33.2501 40.674C32.0823 40.9725 30.8736 40.3524 30.4469 39.2248C29.9434 37.8967 30.7268 36.4576 32.1 36.0952C37.6757 34.6245 39.4575 31.0029 38.5882 25.4148H30.1167C29.1039 25.4146 28.1327 25.0122 27.4166 24.2961C26.7006 23.5799 26.2983 22.6086 26.2983 21.5959V10.5664C26.2984 9.55378 26.7007 8.58263 27.4168 7.86657C28.1329 7.15051 29.104 6.74817 30.1167 6.74805H42.746C43.7587 6.74805 44.73 7.15033 45.4462 7.8664C46.1623 8.58248 46.5647 9.5537 46.5648 10.5664Z" fill="#ECECEC"/>
</svg>
