<svg width="190" height="190" viewBox="0 0 190 190" fill="none" xmlns="http://www.w3.org/2000/svg">
<path d="M84.0382 15.1145V73.8891C84.0382 112.691 61.6752 126.53 31.336 134.29C26.7114 135.472 21.9272 133.017 20.2381 128.554C18.245 123.297 21.3458 117.6 26.7817 116.166C48.8521 110.344 55.9049 96.0089 52.464 73.8891H18.9328C14.9237 73.8891 11.0788 72.2965 8.2439 69.4616C5.40902 66.6267 3.81641 62.7818 3.81641 58.7727V15.1145C3.81691 11.1057 5.40975 7.26128 8.24457 4.42682C11.0794 1.59235 14.924 -3.1666e-08 18.9328 0H68.9218C72.9306 -3.1666e-08 76.7752 1.59235 79.6101 4.42682C82.4449 7.26128 84.0377 11.1057 84.0382 15.1145ZM184.316 15.1145V73.8891C184.316 112.691 161.952 126.53 131.612 134.29C126.99 135.472 122.205 133.017 120.516 128.554C118.523 123.297 121.624 117.6 127.06 116.166C149.13 110.344 156.183 96.0089 152.742 73.8891H119.209C115.2 73.8886 111.356 72.2957 108.521 69.4609C105.687 66.6261 104.095 62.7815 104.095 58.7727V15.1145C104.095 11.106 105.688 7.2619 108.522 4.42749C111.357 1.59308 115.201 0.000503797 119.209 0H169.2C173.209 -3.1666e-08 177.053 1.59235 179.888 4.42682C182.723 7.26128 184.316 11.1057 184.316 15.1145Z" fill="#ECECEC" fill-opacity="0.3"/>
</svg>
