<svg width="40" height="40" viewBox="0 0 40 40" fill="none" xmlns="http://www.w3.org/2000/svg">
<path d="M36.672 5.7908C36.3277 5.46322 35.8766 5.29611 35.402 5.31924C33.2312 5.4265 30.984 5.174 28.7222 4.56791C25.8119 3.78807 23.1675 2.48838 21.075 0.809316C20.4417 0.301191 19.5571 0.301191 18.9237 0.809316C16.8312 2.48838 14.187 3.78799 11.2766 4.56783C9.01484 5.17385 6.76727 5.42666 4.5968 5.31916C4.12148 5.29588 3.67109 5.46314 3.3268 5.7908C2.98258 6.11846 2.79297 6.56057 2.79297 7.0358V18.9324C2.79297 28.9793 9.95469 37.6518 19.822 39.5538C19.9391 39.5764 20.0596 39.5764 20.1768 39.5538C30.0441 37.6518 37.2058 28.9792 37.2058 18.9324V7.03588C37.2058 6.56064 37.0162 6.11854 36.672 5.7908ZM35.3308 18.9325C35.3308 28.0221 28.8941 35.8763 19.9994 37.6777C11.1046 35.8763 4.66797 28.0221 4.66797 18.9325V7.19939C6.98242 7.29627 9.36805 7.02041 11.762 6.37908C14.8766 5.54447 17.7219 4.15229 19.9994 2.34979C22.2769 4.15236 25.1222 5.54447 28.2368 6.37908C30.6308 7.02049 33.0164 7.2965 35.3308 7.19939V18.9325Z" fill="#1D1D1D" stroke="#1D1D1D" stroke-width="0.75"/>
</svg>
