<?xml version="1.0" ?><svg style="enable-background:new 0 0 24 24;" version="1.1" viewBox="0 0 24 24" xml:space="preserve" xmlns="http://www.w3.org/2000/svg" xmlns:xlink="http://www.w3.org/1999/xlink"><style type="text/css">
	.st0{opacity:0.2;fill:none;stroke:#000000;stroke-width:5.000000e-02;stroke-miterlimit:10;}
</style><g id="grid_system"/><g id="_icons"><path d="M9.1,6.3C9.6,6.1,9.9,5.5,9.7,5C9.6,4.5,9,4.2,8.5,4.3C4.7,5.4,2,9,2,13c0,5,4,9,9,9s9-4,9-9c0-0.6-0.4-1-1-1s-1,0.4-1,1   c0,3.9-3.1,7-7,7s-7-3.1-7-7C4,9.9,6.1,7.1,9.1,6.3z"/><path d="M14,2.2c-0.7-0.1-1.5,0-2.1,0.5C11.3,3.2,11,3.9,11,4.6v5.2c0,0.8,0.4,1.5,1,1.9c0.4,0.3,1,0.5,1.6,0.5   c0.4,0,0.9-0.1,1.3-0.2l4.4-1.6c0.7-0.3,1.3-0.8,1.5-1.5c0.2-0.7,0.2-1.5-0.2-2.1C19.1,4.4,16.7,2.7,14,2.2z M18.9,8.2   c0,0.1-0.1,0.2-0.3,0.3l-4.4,1.6c-0.5,0.2-0.9,0.1-1,0C13,10.1,13,10,13,9.9V4.6c0-0.2,0.1-0.3,0.2-0.4c0.1,0,0.2-0.1,0.3-0.1   c0,0,0.1,0,0.1,0c2.2,0.4,4.1,1.8,5.2,3.7C18.9,8,18.9,8.2,18.9,8.2z"/></g></svg>