<svg width="40" height="40" viewBox="0 0 40 40" fill="none" xmlns="http://www.w3.org/2000/svg">
<path d="M28.4 17.4V10.4C28.4 8.17218 27.515 6.03561 25.9397 4.4603C24.3644 2.885 22.2278 2 20 2C17.7722 2 15.6356 2.885 14.0603 4.4603C12.485 6.03561 11.6 8.17218 11.6 10.4V17.4M10.2 38.4H29.8C30.9139 38.4 31.9822 37.9575 32.7698 37.1699C33.5575 36.3822 34 35.3139 34 34.2V21.6C34 20.4861 33.5575 19.4178 32.7698 18.6302C31.9822 17.8425 30.9139 17.4 29.8 17.4H10.2C9.08609 17.4 8.0178 17.8425 7.23015 18.6302C6.4425 19.4178 6 20.4861 6 21.6V34.2C6 35.3139 6.4425 36.3822 7.23015 37.1699C8.0178 37.9575 9.08609 38.4 10.2 38.4Z" stroke="#1D1D1D" stroke-width="2.5" stroke-linecap="round" stroke-linejoin="round"/>
</svg>
