<svg width="41" height="41" viewBox="0 0 41 41" fill="none" xmlns="http://www.w3.org/2000/svg">
<path d="M22.7451 39.3011C22.8364 39.398 23.0052 39.3712 23.19 39.3698C23.5969 39.3668 24.0038 39.3695 24.4107 39.3693L38.5706 39.3637C38.8522 39.3635 39.1694 39.3485 39.3585 39.1398C39.5254 38.9556 39.5345 38.682 39.5345 38.4333C39.5333 33.0889 39.5321 27.7445 39.5309 22.4C37.5047 22.3055 35.4785 22.211 33.4523 22.1164C33.2683 22.1079 33.056 22.111 32.9381 22.2526C32.8385 22.3723 32.8466 22.5461 32.8684 22.7003C32.9739 23.4459 33.2754 24.1781 33.1906 24.9263C33.0717 25.9761 32.0944 26.8584 31.0379 26.8696C29.9814 26.8808 28.9855 26.0195 28.8443 24.9724C28.7362 24.1701 29.0735 23.385 29.3189 22.6135C29.3729 22.4437 29.4193 22.2462 29.3211 22.0975C29.2042 21.9204 28.9524 21.9109 28.7404 21.9205C26.7426 22.0107 24.7449 22.1009 22.7472 22.1912C22.7127 24.119 22.6923 26.0471 22.6858 27.9752C22.6851 28.1899 22.71 28.4487 22.9017 28.5454C23.0247 28.6074 23.1721 28.5756 23.3056 28.5417C24.0003 28.3658 24.7234 28.1694 25.4235 28.3228C26.4538 28.5485 27.23 29.6091 27.1335 30.6595C27.0371 31.7099 26.0807 32.6114 25.0265 32.6457C24.4368 32.6649 23.8694 32.4474 23.3031 32.2817C23.1795 32.2455 23.044 32.2121 22.9249 32.2612C22.7107 32.3494 22.6775 32.6336 22.6773 32.8652C22.6762 34.9264 22.675 36.9876 22.6738 39.0488C22.6738 39.1751 22.7 39.2532 22.7451 39.3011Z" fill="white" stroke="#1D1D1D" stroke-width="1.5" stroke-linecap="round" stroke-linejoin="round"/>
<path d="M29.2397 25.9996C30.3014 27.3312 32.9574 27.0348 33.1997 24.9515C33.2861 24.2082 32.9872 23.4808 32.8668 22.7422C32.8419 22.5897 32.8283 22.4201 32.9168 22.2934C33.0402 22.1167 33.2943 22.1088 33.5096 22.1187C35.543 22.2125 37.5764 22.3064 39.6099 22.4002L39.6088 6.38888C39.6088 6.10135 39.5961 5.78135 39.3929 5.57788C39.1893 5.37402 38.8686 5.36118 38.5805 5.36117C33.2439 5.36082 27.9073 5.36046 22.5706 5.36011C22.5699 7.32532 22.5691 9.29052 22.5684 11.2557C22.5683 11.4947 22.5951 11.7812 22.8064 11.8929C22.9275 11.9569 23.074 11.94 23.2088 11.9156C23.8249 11.804 24.4284 11.5683 25.0539 11.597C26.2078 11.6501 27.2098 12.7473 27.1582 13.9013C27.1067 15.0553 26.0109 16.0587 24.8568 16.0087C24.2855 15.984 23.75 15.7406 23.1986 15.5889C23.0803 15.5564 22.9518 15.5284 22.8372 15.5723C22.6047 15.6613 22.5692 15.97 22.5718 16.219C22.5927 18.2073 22.6135 20.1956 22.6344 22.1839C24.6646 22.096 26.6949 22.0081 28.7251 21.9202C28.9408 21.9109 29.1978 21.9218 29.3137 22.1039C29.3981 22.2365 29.3705 22.4091 29.3322 22.5616C29.1462 23.303 28.7771 24.0181 28.8069 24.7819C28.8263 25.2777 28.9883 25.6843 29.2397 25.9996Z" fill="white" stroke="#1D1D1D" stroke-width="1.5" stroke-linecap="round" stroke-linejoin="round"/>
<path d="M22.8111 32.5515C22.8533 32.4463 22.9214 32.3615 23.0298 32.3239C23.1487 32.2827 23.2792 32.3169 23.3995 32.3536C23.9522 32.522 24.5044 32.7428 25.0821 32.7347C26.1585 32.7196 27.1423 31.7858 27.2135 30.7117C27.2847 29.6376 26.4328 28.5821 25.3678 28.425C24.7321 28.3313 24.0939 28.5222 23.4694 28.6735C23.2887 28.7173 23.0812 28.7532 22.9307 28.6441C22.7608 28.5212 22.7471 28.2778 22.7495 28.0681C22.7704 26.1964 22.7913 24.3246 22.8122 22.4529C20.6756 22.3663 18.539 22.2797 16.4024 22.1931C16.2302 22.1861 16.037 22.1866 15.9132 22.3066C15.7724 22.4431 15.7859 22.6698 15.8208 22.8628C15.9578 23.6205 16.2686 24.3685 16.176 25.1329C16.0459 26.2059 15.0157 27.0913 13.9353 27.0585C12.8549 27.0257 11.8803 26.0794 11.8156 25.0005C11.775 24.3228 12.0473 23.6717 12.2686 23.0299C12.3099 22.91 12.3498 22.7793 12.3105 22.6586C12.2298 22.4107 11.8983 22.3765 11.6378 22.3883C9.67892 22.4767 7.72004 22.5652 5.76115 22.6536C5.75939 27.6038 5.75763 32.5541 5.75586 37.5043C5.75572 37.9235 5.75913 38.3591 5.94115 38.7367C6.35772 39.6008 7.55732 39.3653 8.3379 39.3653L22.7481 39.3656L22.7468 32.9808C22.7468 32.8402 22.7594 32.6805 22.8111 32.5515Z" fill="white" stroke="#1D1D1D" stroke-width="1.5" stroke-linecap="round" stroke-linejoin="round"/>
<path d="M7.96766 22.6876C8.3688 23.202 8.99316 23.5469 9.65136 23.5682C10.7202 23.6027 11.7405 22.7573 11.8942 21.6951C12.012 20.8807 11.6689 20.0789 11.5406 19.2661C11.5127 19.0894 11.5023 18.8868 11.6229 18.7548C11.748 18.6178 11.959 18.615 12.1444 18.6224C14.2528 18.7063 16.3612 18.7902 18.4696 18.874C18.4515 16.8487 18.4333 14.8233 18.4152 12.798C18.4141 12.6758 18.4146 12.5471 18.4752 12.4411C18.6455 12.1431 19.0915 12.2477 19.4123 12.3698C19.981 12.5863 20.5976 12.7344 21.1969 12.6285C22.161 12.4582 22.9488 11.569 23.0018 10.5914C23.0547 9.61383 22.3675 8.64476 21.4274 8.37133C20.6797 8.15384 19.8806 8.34695 19.129 8.55103C18.923 8.60696 18.6698 8.65159 18.5242 8.49556C18.424 8.38827 18.418 8.22631 18.4177 8.07954C18.4134 6.05302 18.409 4.02651 18.4047 2C13.1503 2.00055 7.89582 2.0011 2.64138 2.00165C2.26919 2.0017 1.85476 2.01836 1.59206 2.28203C1.33061 2.54444 1.31426 2.95656 1.31422 3.327C1.31364 8.58208 1.31308 13.8372 1.3125 19.0922C3.3385 19.0032 5.36449 18.9143 7.39049 18.8253C7.61239 18.8155 7.88492 18.8341 7.98197 19.0339C8.04164 19.1567 8.00725 19.3025 7.96881 19.4335C7.75701 20.155 7.44922 20.8812 7.52937 21.6289C7.57128 22.0199 7.73044 22.3834 7.96766 22.6876Z" fill="white" stroke="#1D1D1D" stroke-width="1.5" stroke-linecap="round" stroke-linejoin="round"/>
</svg>
