<svg width="41" height="40" viewBox="0 0 41 40" fill="none" xmlns="http://www.w3.org/2000/svg">
<path d="M35.1231 16.5346H35.0241V14.1089C35.0241 6.31678 28.7074 0 20.9152 0C13.123 0 6.8063 6.31678 6.8063 14.1089V16.5346H6.21228C4.03404 16.5346 2.3509 18.4653 2.3509 20.6931V26.8812C2.29603 29.0404 4.00201 30.8352 6.16121 30.8901C6.17826 30.8906 6.19522 30.8909 6.21228 30.8911H9.87562C10.3945 30.8667 10.7954 30.4262 10.771 29.9073C10.7701 29.8886 10.7687 29.87 10.7667 29.8514V17.7227C10.7667 17.1287 10.4202 16.5346 9.87562 16.5346H8.7865V14.1088C8.7865 7.41036 14.2168 1.98011 20.9152 1.98011C27.6137 1.98011 33.0439 7.41036 33.0439 14.1088V16.5346H31.9548C31.4102 16.5346 31.0637 17.1286 31.0637 17.7227V29.8514C31.0085 30.3679 31.3824 30.8315 31.8989 30.8867C31.9175 30.8887 31.9361 30.8901 31.9548 30.891H33.0934L32.9944 31.0394C32.2617 32.0131 31.3118 32.8021 30.2202 33.3436C29.1287 33.8851 27.9257 34.164 26.7072 34.1582C26.1664 31.5061 23.5778 29.7945 20.9257 30.3355C18.6578 30.798 17.0226 32.7843 17.0043 35.0989C17.0314 37.8136 19.2399 40 21.9548 39.9998C23.2987 39.978 24.5797 39.4265 25.5191 38.4651C26.1529 37.8161 26.5683 36.9853 26.7072 36.0889C28.2331 36.0947 29.7393 35.7441 31.1058 35.0652C32.4723 34.3862 33.6614 33.3976 34.5785 32.178L35.5191 30.7918C37.6478 30.6434 38.9844 29.3067 38.9844 27.376V21.1879C38.9845 19.0594 37.4004 16.5346 35.1231 16.5346ZM8.7865 28.9109H6.21228C5.14628 28.8849 4.30314 27.9998 4.32911 26.9338C4.32958 26.9163 4.33024 26.8987 4.3311 26.8811V20.693C4.3311 19.5544 5.12316 18.5148 6.21228 18.5148H8.7865V28.9109ZM24.0835 37.0792C23.8121 37.3735 23.4831 37.6088 23.1169 37.7706C22.7507 37.9324 22.3552 38.0173 21.9549 38.0198C20.3442 37.9942 19.0372 36.709 18.9846 35.099C18.9839 33.4858 20.2911 32.1776 21.9042 32.177C23.5173 32.1763 24.8255 33.4835 24.8261 35.0966V35.099C24.8465 35.4625 24.791 35.8263 24.6632 36.1672C24.5353 36.5081 24.3379 36.8187 24.0835 37.0792ZM37.0043 27.3762C37.0043 28.7128 35.7172 28.9109 35.1231 28.9109H33.0439V18.5148H35.1231C36.2123 18.5148 37.0043 20.0495 37.0043 21.1881V27.3762Z" fill="#1D1D1D"/>
</svg>
